<!--
flag-icons: https://github.com/lipis/flag-icons
The MIT License (MIT)

Copyright (c) 2013 Panayiotis Lipiridis

Permission is hereby granted, free of charge, to any person obtaining a copy of
this software and associated documentation files (the "Software"), to deal in
the Software without restriction, including without limitation the rights to
use, copy, modify, merge, publish, distribute, sublicense, and/or sell copies
of the Software, and to permit persons to whom the Software is furnished to do
so, subject to the following conditions:

The above copyright notice and this permission notice shall be included in all
copies or substantial portions of the Software.

THE SOFTWARE IS PROVIDED "AS IS", WITHOUT WARRANTY OF ANY KIND, EXPRESS OR
IMPLIED, INCLUDING BUT NOT LIMITED TO THE WARRANTIES OF MERCHANTABILITY,
FITNESS FOR A PARTICULAR PURPOSE AND NONINFRINGEMENT. IN NO EVENT SHALL THE
AUTHORS OR COPYRIGHT HOLDERS BE LIABLE FOR ANY CLAIM, DAMAGES OR OTHER
LIABILITY, WHETHER IN AN ACTION OF CONTRACT, TORT OR OTHERWISE, ARISING FROM,
OUT OF OR IN CONNECTION WITH THE SOFTWARE OR THE USE OR OTHER DEALINGS IN THE
SOFTWARE.
-->
<svg xmlns="http://www.w3.org/2000/svg" id="flag-icons-pk" viewBox="0 0 640 480">
  <defs>
    <clipPath id="pk-a">
      <path fill-opacity=".7" d="M-52.3 0h682.6v512H-52.3z"/>
    </clipPath>
  </defs>
  <g fill-rule="evenodd" stroke-width="1pt" clip-path="url(#pk-a)" transform="translate(49)scale(.9375)">
    <path fill="#0c590b" d="M-95 0h768v512H-95z"/>
    <path fill="#fff" d="M-95 0H97.5v512H-95z"/>
    <g fill="#fff">
      <path d="m403.7 225.4-31.2-6.6-16.4 27.3-3.4-31.6-31-7.2 29-13-2.7-31.7 21.4 23.6 29.3-12.4-15.9 27.6 21 24z"/>
      <path d="M415.4 306a121 121 0 0 1-161.3 59.4 122 122 0 0 1-59.5-162.1A119 119 0 0 1 266 139a156 156 0 0 0-11.8 10.9A112.3 112.3 0 0 0 415.5 306z"/>
    </g>
  </g>
</svg>
